<svg width="228" height="34" viewBox="0 0 228 34" fill="none" xmlns="http://www.w3.org/2000/svg">
<g clip-path="url(#clip0_1360_2080)">
<path fill-rule="evenodd" clip-rule="evenodd" d="M120.04 0.792741V33.2182H124.929V0.792741H120.04ZM119.276 0.792741V33.2182C119.276 33.4094 119.353 33.5928 119.489 33.728C119.626 33.8632 119.811 33.9391 120.003 33.9391H124.965C125.158 33.9391 125.343 33.8632 125.479 33.728C125.616 33.5928 125.692 33.4094 125.692 33.2182V0.738827C125.692 0.547644 125.616 0.364292 125.479 0.229105C125.343 0.0939185 125.158 0.0179715 124.965 0.0179715H119.949C119.756 0.0179715 119.571 0.0939185 119.435 0.229105C119.298 0.364292 119.222 0.547644 119.222 0.738827L119.276 0.792741ZM203.549 15.4565V11.0245C203.551 10.9309 203.535 10.8376 203.501 10.7503C203.467 10.6629 203.416 10.5833 203.35 10.516C203.284 10.4488 203.205 10.3953 203.118 10.3589C203.031 10.3224 202.938 10.3036 202.843 10.3036H198.1V4.62965C198.102 4.49727 198.064 4.36732 197.993 4.25551C197.921 4.1437 197.819 4.05483 197.697 3.99965C197.583 3.9295 197.45 3.89234 197.316 3.89234C197.181 3.89234 197.049 3.9295 196.934 3.99965L191.954 7.60292C191.862 7.67422 191.789 7.76525 191.738 7.86906C191.688 7.97288 191.662 8.08674 191.663 8.20197V10.3036H189.01C188.817 10.3036 188.632 10.3796 188.495 10.5148C188.359 10.65 188.282 10.8333 188.282 11.0245V15.4565C188.282 15.6476 188.359 15.831 188.495 15.9662C188.632 16.1014 188.817 16.1773 189.01 16.1773H191.717V24.0857C191.717 29.7418 196.243 33.6516 202.622 33.9391C202.722 33.9437 202.821 33.9283 202.915 33.894C203.008 33.8597 203.094 33.8072 203.167 33.7394C203.237 33.6715 203.292 33.5902 203.33 33.5005C203.367 33.4107 203.386 33.3144 203.385 33.2172V28.318C203.386 28.1381 203.316 27.965 203.19 27.8348C203.065 27.7046 202.894 27.6274 202.712 27.6191C200.094 27.4394 198.096 26.2683 198.096 23.908V16.2202H202.803C202.898 16.2203 202.991 16.2015 203.078 16.165C203.165 16.1285 203.244 16.0751 203.31 16.0078C203.375 15.9406 203.427 15.8609 203.461 15.7736C203.495 15.6862 203.511 15.593 203.508 15.4994L203.549 15.4565ZM211.363 22.1398C211.348 21.4366 211.474 20.7374 211.735 20.0832C211.996 19.4289 212.385 18.8328 212.881 18.3296C213.377 17.8264 213.969 17.4262 214.623 17.1525C215.276 16.8788 215.979 16.737 216.688 16.7354C217.84 16.7381 218.958 17.1183 219.868 17.8167L211.544 23.6894C211.407 23.2091 211.346 22.7106 211.363 22.2117V22.1398ZM221.722 25.8689C221.138 26.4686 220.433 26.9389 219.653 27.2487C218.873 27.5585 218.036 27.7007 217.196 27.6661C216.581 27.678 215.968 27.5865 215.383 27.3955L227.705 18.6404C227.838 18.5492 227.935 18.4144 227.978 18.2596C228.021 18.1049 228.009 17.94 227.942 17.7937C227.035 15.5861 225.483 13.6978 223.484 12.3719C221.486 11.046 219.133 10.3431 216.729 10.3536C215.165 10.355 213.616 10.6628 212.173 11.2594C210.729 11.8561 209.418 12.7296 208.317 13.83C207.215 14.9303 206.343 16.2357 205.752 17.6711C205.161 19.1064 204.862 20.6434 204.872 22.1938C204.944 25.3854 206.288 28.419 208.611 30.6303C210.934 32.8417 214.046 34.0508 217.267 33.993C219.071 34.0236 220.862 33.6732 222.52 32.965C224.177 32.2568 225.664 31.2071 226.881 29.8855C227.005 29.7339 227.064 29.5397 227.044 29.3454C227.014 29.1521 226.91 28.9779 226.753 28.8592L222.791 25.815C222.64 25.71 222.455 25.6631 222.271 25.683C222.088 25.7028 221.917 25.788 221.792 25.9228L221.722 25.8689ZM186.81 22.1398C186.81 15.5823 182.466 10.3046 176.214 10.3046C174.016 10.1902 171.859 10.9266 170.199 12.3584V11.0245C170.199 10.8333 170.122 10.65 169.986 10.5148C169.849 10.3796 169.664 10.3036 169.471 10.3036H164.473C164.281 10.3036 164.096 10.3796 163.959 10.5148C163.823 10.65 163.746 10.8333 163.746 11.0245V33.2182C163.746 33.4094 163.823 33.5928 163.959 33.728C164.096 33.8632 164.281 33.9391 164.473 33.9391H169.453C169.646 33.9391 169.831 33.8632 169.968 33.728C170.104 33.5928 170.181 33.4094 170.181 33.2182V22.1358C170.147 21.4173 170.265 20.6996 170.527 20.0288C170.789 19.3579 171.189 18.7487 171.703 18.24C172.216 17.7314 172.83 17.3345 173.507 17.0747C174.184 16.8149 174.908 16.698 175.633 16.7314C178.268 16.7314 180.394 18.5286 180.394 22.1358V33.2182C180.394 33.4094 180.471 33.5928 180.607 33.728C180.744 33.8632 180.929 33.9391 181.122 33.9391H186.047C186.24 33.9391 186.425 33.8632 186.561 33.728C186.698 33.5928 186.774 33.4094 186.774 33.2182V22.1358L186.81 22.1398ZM102.319 22.1398C102.333 23.2533 102.693 24.3354 103.351 25.238C104.009 26.1406 104.932 26.8197 105.994 27.1825C107.057 27.5453 108.206 27.574 109.285 27.2647C110.364 26.9554 111.321 26.3232 112.024 25.4546C112.075 25.3742 112.145 25.3065 112.227 25.2565C112.308 25.2065 112.401 25.1756 112.496 25.166C112.588 25.1449 112.683 25.1453 112.775 25.1671C112.866 25.189 112.951 25.2317 113.023 25.2918L117.003 28.336C117.076 28.3935 117.137 28.4649 117.182 28.546C117.228 28.6272 117.256 28.7164 117.266 28.8086C117.277 28.9008 117.268 28.9941 117.241 29.083C117.215 29.1719 117.171 29.2546 117.112 29.3264C115.702 31.1313 113.795 32.4923 111.62 33.2443C109.446 33.9963 107.099 34.1072 104.862 33.5634C102.626 33.0197 100.597 31.8446 99.0204 30.1807C97.4441 28.5168 96.3886 26.4355 95.9816 24.1889C95.5747 21.9424 95.8339 19.6271 96.7278 17.5236C97.6217 15.4201 99.1119 13.6188 101.018 12.3378C102.924 11.0569 105.164 10.3515 107.466 10.3069C109.768 10.2623 112.034 10.8806 113.989 12.0868C114.077 12.1379 114.153 12.2082 114.209 12.2925C114.266 12.3767 114.303 12.4727 114.316 12.573C114.334 12.6709 114.33 12.7714 114.305 12.8676C114.28 12.9638 114.234 13.0537 114.171 13.1311L111.134 17.0729C111.03 17.2105 110.878 17.3064 110.708 17.343C110.538 17.3797 110.361 17.3547 110.208 17.2726C109.375 16.8566 108.448 16.6593 107.517 16.6995C106.585 16.7397 105.679 17.0161 104.886 17.5023C104.093 17.9885 103.439 18.6682 102.986 19.4765C102.534 20.2847 102.298 21.1945 102.302 22.1189L102.319 22.1398ZM144.322 22.1398C144.307 21.4355 144.434 20.7353 144.695 20.0802C144.957 19.4251 145.347 18.8283 145.845 18.325C146.342 17.8216 146.936 17.4217 147.591 17.1487C148.246 16.8758 148.95 16.7353 149.66 16.7354C150.812 16.7381 151.93 17.1183 152.84 17.8167L144.48 23.6175C144.351 23.1356 144.29 22.6383 144.299 22.1398H144.322ZM154.735 25.8689C154.152 26.4686 153.447 26.9389 152.667 27.2487C151.887 27.5585 151.049 27.7007 150.209 27.6661C149.594 27.678 148.981 27.5865 148.396 27.3955L160.7 18.6404C160.835 18.55 160.933 18.4163 160.98 18.262C161.026 18.1078 161.017 17.9424 160.955 17.7937C160.048 15.5861 158.496 13.6978 156.498 12.3719C154.5 11.046 152.147 10.3431 149.742 10.3536C148.178 10.3554 146.63 10.6635 145.187 11.2603C143.744 11.8571 142.433 12.7307 141.332 13.831C140.23 14.9313 139.359 16.2366 138.768 17.6717C138.177 19.1069 137.878 20.6437 137.888 22.1938C137.96 25.3845 139.304 28.4173 141.626 30.6286C143.948 32.8398 147.059 34.0495 150.278 33.993C152.083 34.0236 153.873 33.6732 155.531 32.965C157.189 32.2568 158.675 31.2071 159.892 29.8855C160.009 29.7315 160.062 29.5384 160.038 29.347C160.014 29.1555 159.917 28.9807 159.765 28.8592L155.717 25.7591C155.566 25.6541 155.381 25.6072 155.197 25.627C155.013 25.6469 154.843 25.7321 154.718 25.8669L154.735 25.8689ZM131.744 0C132.492 0 133.223 0.219761 133.844 0.631492C134.466 1.04322 134.951 1.62843 135.237 2.31312C135.523 2.9978 135.598 3.75121 135.452 4.47806C135.306 5.20492 134.946 5.87258 134.417 6.39661C133.889 6.92065 133.215 7.27752 132.482 7.4221C131.748 7.56668 130.988 7.49248 130.297 7.20887C129.607 6.92527 129.016 6.445 128.601 5.8288C128.186 5.2126 127.964 4.48814 127.964 3.74705C127.964 2.75327 128.362 1.80019 129.071 1.09749C129.78 0.394777 130.742 0 131.744 0V0ZM134.234 10.2837H129.253C129.06 10.2837 128.875 10.3596 128.739 10.4948C128.603 10.63 128.526 10.8133 128.526 11.0045V33.2182C128.526 33.4094 128.603 33.5928 128.739 33.728C128.875 33.8632 129.06 33.9391 129.253 33.9391H134.233C134.426 33.9391 134.611 33.8632 134.747 33.728C134.884 33.5928 134.96 33.4094 134.96 33.2182V11.0245C134.96 10.8333 134.884 10.65 134.747 10.5148C134.611 10.3796 134.426 10.3036 134.233 10.3036L134.234 10.2837ZM202.729 15.3816V11.0584H198.095C197.993 11.0608 197.892 11.043 197.797 11.0061C197.703 10.9691 197.616 10.9137 197.543 10.8432C197.471 10.7727 197.413 10.6885 197.373 10.5955C197.334 10.5025 197.313 10.4026 197.313 10.3016V4.7195L192.443 8.32278V10.3036C192.439 10.506 192.354 10.6985 192.208 10.8399C192.062 10.9813 191.866 11.0605 191.662 11.0604H189.009V15.4015H191.677C191.884 15.4015 192.083 15.4832 192.229 15.6285C192.376 15.7738 192.458 15.9708 192.458 16.1763V24.0847C192.438 25.2755 192.673 26.4571 193.149 27.5505C193.626 28.6439 194.332 29.6241 195.22 30.4257C197.288 32.1681 199.903 33.1427 202.617 33.1823V28.3719C201.247 28.3319 199.922 27.8792 198.818 27.074C198.349 26.6974 197.974 26.2187 197.722 25.6752C197.47 25.1317 197.348 24.5379 197.365 23.94V16.2123C197.365 16.0068 197.447 15.8097 197.594 15.6644C197.74 15.5191 197.939 15.4375 198.146 15.4375L202.729 15.3816ZM210.525 22.1189C210.52 20.4687 211.171 18.883 212.338 17.7059C212.904 17.1293 213.583 16.6727 214.333 16.3638C215.082 16.0549 215.888 15.9001 216.699 15.9087C217.368 15.9021 218.032 16.0119 218.663 16.2332C219.261 16.4497 219.825 16.7525 220.335 17.1318C220.416 17.1907 220.485 17.265 220.538 17.3505C220.59 17.4359 220.625 17.5308 220.64 17.6297C220.655 17.7286 220.65 17.8295 220.626 17.9265C220.602 18.0236 220.558 18.1148 220.498 18.1951C220.447 18.2637 220.386 18.3243 220.317 18.3748L211.992 24.2475C211.825 24.3615 211.62 24.4065 211.419 24.373C211.219 24.3394 211.04 24.23 210.92 24.0678C210.865 23.9991 210.828 23.9187 210.811 23.8331C210.718 23.5657 210.663 23.2868 210.648 23.0045C210.63 22.7165 210.63 22.4278 210.648 22.1398L210.525 22.1189ZM222.266 26.3701C221.657 27.0237 220.905 27.5294 220.067 27.8478C219.145 28.1982 218.164 28.3694 217.177 28.352C216.82 28.3789 216.461 28.3789 216.104 28.352C215.731 28.3148 215.364 28.2299 215.013 28.0994C214.882 28.0492 214.767 27.9649 214.68 27.8555C214.593 27.746 214.537 27.6153 214.519 27.4772C214.5 27.3391 214.52 27.1985 214.575 27.0703C214.63 26.9421 214.719 26.831 214.832 26.7485L227.172 18.0114C226.326 15.9598 224.884 14.204 223.028 12.9674C221.147 11.7319 218.939 11.0741 216.682 11.0764C215.225 11.0765 213.783 11.3632 212.438 11.9198C211.094 12.4765 209.874 13.292 208.85 14.3193C206.764 16.4031 205.594 19.2203 205.596 22.1558C205.604 23.613 205.91 25.0535 206.494 26.3908C207.078 27.728 207.928 28.9344 208.995 29.9375C211.205 32.0332 214.15 33.196 217.209 33.1803C218.985 33.1791 220.741 32.8173 222.37 32.117C223.845 31.5198 225.154 30.5806 226.187 29.3783L222.298 26.3831L222.266 26.3701ZM185.917 22.1189C185.981 19.2057 184.973 16.3691 183.082 14.1385C182.228 13.1839 181.182 12.4167 180.012 11.8863C178.841 11.3559 177.572 11.0739 176.285 11.0584C175.155 11.062 174.033 11.2443 172.961 11.5986C172.156 11.8236 171.428 12.2592 170.852 12.8596C170.707 13.0005 170.511 13.0794 170.307 13.0794C170.103 13.0794 169.908 13.0005 169.762 12.8596C169.676 12.7898 169.607 12.7018 169.559 12.6022C169.512 12.5025 169.488 12.3936 169.489 12.2835V11.0604H164.527V33.1823H169.397V22.1398C169.379 21.3123 169.53 20.4898 169.842 19.7219C170.154 18.9539 170.619 18.2566 171.21 17.6719C171.808 17.0914 172.515 16.6338 173.292 16.3254C174.069 16.0169 174.899 15.8638 175.736 15.8748C176.506 15.8613 177.269 16.0153 177.973 16.3258C178.676 16.6362 179.302 17.0957 179.807 17.6719C180.788 18.9394 181.29 20.5077 181.224 22.1039V33.1474H186.059V22.1398L185.917 22.1189ZM103.281 26.5319C102.16 25.3303 101.538 23.7544 101.538 22.1184C101.538 20.4823 102.16 18.9064 103.281 17.7049C103.856 17.1306 104.542 16.6759 105.297 16.3674C106.052 16.0588 106.862 15.9025 107.678 15.9077C108.181 15.912 108.681 15.9723 109.169 16.0875C109.646 16.2067 110.109 16.3757 110.55 16.5916L113.549 12.7368C112.683 12.1909 111.74 11.7778 110.75 11.5117C109.753 11.2196 108.718 11.0739 107.678 11.0794C106 11.08 104.344 11.4559 102.832 12.1789C101.321 12.902 99.9936 13.9536 98.949 15.2556C97.9045 16.5576 97.1696 18.0763 96.7993 19.6988C96.4289 21.3212 96.4324 23.0056 96.8097 24.6264C97.187 26.2473 97.9283 27.763 98.9784 29.0605C100.029 30.3581 101.36 31.4042 102.875 32.1209C104.389 32.8377 106.047 33.2066 107.726 33.2002C109.404 33.1938 111.059 32.8123 112.568 32.084C114.114 31.3127 115.459 30.1966 116.496 28.8232L112.68 25.9278C112.14 26.6858 111.423 27.3025 110.589 27.725C109.411 28.3267 108.069 28.5381 106.76 28.328C105.452 28.1179 104.246 27.4975 103.319 26.5578L103.281 26.5319ZM143.572 22.1388C143.566 20.4886 144.218 18.903 145.385 17.7258C145.951 17.1493 146.63 16.6927 147.379 16.3838C148.129 16.0748 148.934 15.92 149.746 15.9287C150.376 15.9229 151.002 16.0204 151.599 16.2172C152.198 16.4337 152.762 16.7365 153.272 17.1158C153.353 17.1747 153.422 17.249 153.474 17.3345C153.527 17.42 153.562 17.5149 153.577 17.6137C153.592 17.7126 153.587 17.8135 153.563 17.9105C153.538 18.0076 153.495 18.0989 153.435 18.1791C153.384 18.2477 153.323 18.3083 153.253 18.3588L144.939 24.2295C144.772 24.3432 144.567 24.3881 144.367 24.3545C144.167 24.321 143.988 24.2117 143.868 24.0498C143.813 23.9811 143.776 23.9007 143.759 23.8152C143.669 23.5461 143.608 23.2683 143.578 22.9865V22.1219L143.572 22.1388ZM155.294 26.3901C154.696 27.047 153.948 27.5535 153.113 27.8677C152.191 28.2169 151.21 28.388 150.224 28.3719C149.866 28.3994 149.508 28.3994 149.151 28.3719C148.778 28.3348 148.411 28.2499 148.06 28.1193C147.918 28.0658 147.794 27.976 147.699 27.8589C147.604 27.7419 147.542 27.6019 147.52 27.4534C147.498 27.3049 147.516 27.1532 147.572 27.0138C147.629 26.8745 147.722 26.7526 147.841 26.6607L160.13 18.0134C159.284 15.9617 157.842 14.2059 155.986 12.9694C154.105 11.7338 151.897 11.0761 149.64 11.0784C148.175 11.0689 146.723 11.3492 145.368 11.9029C144.014 12.4567 142.785 13.2727 141.752 14.3033C139.666 16.3871 138.497 19.2043 138.499 22.1398C138.507 23.6015 138.814 25.0463 139.402 26.3869C139.989 27.7275 140.845 28.936 141.918 29.9394C144.128 32.0352 147.073 33.198 150.132 33.1823C151.908 33.1811 153.664 32.8192 155.293 32.119C156.768 31.5218 158.077 30.5827 159.11 29.3803L155.202 26.3851L155.294 26.3901ZM133.869 1.65737C133.45 1.23928 132.915 0.954276 132.331 0.8386C131.748 0.722924 131.143 0.781803 130.594 1.00775C130.045 1.23369 129.575 1.6165 129.246 2.10748C128.917 2.59846 128.742 3.17543 128.744 3.76502C128.737 4.26131 128.855 4.75157 129.086 5.19175C129.317 5.63193 129.656 6.00821 130.07 6.28678C130.484 6.56535 130.962 6.73747 131.46 6.78767C131.959 6.83786 132.462 6.76456 132.924 6.57436C133.387 6.38415 133.794 6.083 134.11 5.69797C134.426 5.31295 134.641 4.85612 134.734 4.36856C134.828 3.881 134.798 3.37799 134.647 2.90475C134.496 2.43151 134.229 2.00287 133.869 1.65737ZM134.179 11.0604H129.308V33.1823H134.178L134.179 11.0604Z" fill="white"/>
<path fill-rule="evenodd" clip-rule="evenodd" d="M81.5648 27.6161C80.8536 27.6181 80.1491 27.4788 79.4931 27.2064C78.837 26.9341 78.2427 26.5343 77.7451 26.0305C77.2475 25.5268 76.8567 24.9293 76.5958 24.2734C76.335 23.6176 76.2094 22.9165 76.2263 22.2117C76.2111 21.5074 76.338 20.8071 76.5995 20.1521C76.861 19.497 77.2519 18.9002 77.7491 18.3969C78.2464 17.8935 78.84 17.4936 79.4952 17.2206C80.1505 16.9477 80.8541 16.8071 81.5648 16.8073C82.2694 16.8065 82.9667 16.9476 83.6145 17.2222C84.2623 17.4967 84.847 17.8989 85.3332 18.4044C85.8193 18.9099 86.1966 19.508 86.4423 20.1625C86.688 20.817 86.7969 21.5142 86.7624 22.2117C86.7995 22.9098 86.6925 23.6081 86.4477 24.2638C86.203 24.9194 85.8258 25.5186 85.3391 26.0246C84.8525 26.5307 84.2667 26.9328 83.6177 27.2065C82.9687 27.4802 82.2701 27.6196 81.5648 27.6161ZM38.4536 10.3226H37.5471C36.6047 10.3024 35.6682 10.4747 34.7958 10.8287C33.9235 11.1827 33.134 11.7109 32.4765 12.3803V11.4259C32.4807 11.292 32.4472 11.1597 32.3797 11.0436C32.3123 10.9276 32.2136 10.8325 32.0947 10.7689C31.9758 10.7054 31.8414 10.6759 31.7065 10.6839C31.5716 10.6918 31.4417 10.7368 31.3312 10.8138L26.3512 14.4171C26.2544 14.4845 26.1757 14.5743 26.1218 14.6787C26.0679 14.7831 26.0405 14.8989 26.042 15.0161V33.2182C26.042 33.4094 26.1186 33.5928 26.255 33.728C26.3914 33.8631 26.5764 33.9391 26.7693 33.9391H31.7492C31.9421 33.9391 32.1271 33.8631 32.2635 33.728C32.3998 33.5928 32.4765 33.4094 32.4765 33.2182V22.1358C32.4765 18.5326 34.6028 16.7314 37.0928 16.7314C37.4823 16.7331 37.8711 16.7631 38.2562 16.8213C38.3616 16.8468 38.4716 16.8479 38.5775 16.8244C38.6835 16.801 38.7825 16.7536 38.8669 16.6859C38.9513 16.6183 39.0189 16.5322 39.0642 16.4345C39.1096 16.3368 39.1316 16.2299 39.1285 16.1224V11.0425C39.129 10.8603 39.0599 10.6846 38.9351 10.5509C38.8102 10.4172 38.6389 10.3352 38.4556 10.3216L38.4536 10.3226ZM11.9926 10.2687C10.4166 10.3161 8.87582 10.7427 7.50317 11.5117C7.38866 11.5833 7.25579 11.6207 7.12043 11.6194C6.98507 11.6181 6.85293 11.5783 6.73981 11.5046C6.62669 11.4309 6.53736 11.3265 6.4825 11.2038C6.42764 11.0811 6.40956 10.9454 6.43042 10.8128V0.738827C6.43005 0.605462 6.39236 0.474814 6.32155 0.361415C6.25074 0.248016 6.14957 0.156311 6.02931 0.0965034C5.90905 0.0366953 5.77441 0.0111281 5.64037 0.0226459C5.50632 0.0341637 5.37813 0.0823149 5.27005 0.161743L0.309232 3.76502C0.218013 3.82837 0.142691 3.91163 0.0890764 4.0084C0.0354614 4.10517 0.00498579 4.21284 0 4.32313L0 33.1474C0 33.3385 0.0766208 33.5219 0.213007 33.6571C0.349393 33.7923 0.534371 33.8682 0.72725 33.8682H5.70619C5.8017 33.8682 5.89627 33.8496 5.9845 33.8133C6.07274 33.7771 6.15291 33.724 6.22044 33.6571C6.28797 33.5901 6.34154 33.5107 6.37809 33.4232C6.41463 33.3358 6.43344 33.242 6.43344 33.1474V31.7406C7.16279 32.4588 8.03193 33.0223 8.98797 33.397C9.94401 33.7717 10.967 33.9497 11.9946 33.9201C15.0589 33.8262 17.9605 32.5312 20.0628 30.3194C22.1651 28.1076 23.2964 25.1595 23.2085 22.1219C23.2924 19.08 22.1614 16.1282 20.0615 13.9084C17.9616 11.6886 15.0625 10.3802 11.9946 10.2677L11.9926 10.2687ZM11.357 27.5802C10.651 27.5862 9.95117 27.4486 9.30094 27.1758C8.65071 26.9031 8.06385 26.501 7.57668 25.9944C7.0895 25.4878 6.71237 24.8876 6.4686 24.2308C6.22483 23.5739 6.11962 22.8745 6.15947 22.1758C6.12492 21.4783 6.2338 20.7811 6.47949 20.1266C6.72518 19.4721 7.10255 18.8739 7.58867 18.3685C8.07479 17.863 8.65951 17.4608 9.30731 17.1862C9.95511 16.9117 10.6525 16.7705 11.357 16.7714C12.0677 16.7712 12.7714 16.9117 13.4266 17.1847C14.0818 17.4576 14.6755 17.8575 15.1727 18.3609C15.67 18.8643 16.0608 19.461 16.3223 20.1161C16.5838 20.7712 16.7107 21.4714 16.6955 22.1758C16.7151 22.8813 16.5913 23.5835 16.3314 24.2405C16.0715 24.8976 15.6809 25.4961 15.1827 26.0004C14.6846 26.5046 14.0892 26.9044 13.4319 27.1758C12.7746 27.4472 12.069 27.5847 11.357 27.5802ZM45.1802 1.33028e-07C45.9278 0.000197589 46.6586 0.220126 47.2801 0.631977C47.9016 1.04383 48.386 1.62911 48.672 2.31381C48.958 2.99851 49.0327 3.75188 48.8867 4.47867C48.7407 5.20546 48.3806 5.87303 47.8519 6.39696C47.3231 6.9209 46.6496 7.27767 45.9163 7.42217C45.183 7.56667 44.423 7.49241 43.7323 7.20877C43.0416 6.92514 42.4512 6.44487 42.0359 5.82869C41.6206 5.21252 41.3989 4.4881 41.3989 3.74705C41.3989 3.2549 41.4967 2.76756 41.6867 2.31288C41.8768 1.85821 42.1553 1.44509 42.5064 1.09713C42.8576 0.749174 43.2744 0.473189 43.7332 0.284941C44.192 0.0966925 44.6836 -0.000131003 45.1802 1.33028e-07ZM47.6701 10.3036H42.6902C42.4973 10.3036 42.3123 10.3796 42.1759 10.5148C42.0396 10.65 41.9629 10.8333 41.9629 11.0245V33.2182C41.9629 33.4094 42.0396 33.5928 42.1759 33.728C42.3123 33.8631 42.4973 33.9391 42.6902 33.9391H47.6701C47.863 33.9391 48.048 33.8631 48.1844 33.728C48.3208 33.5928 48.3974 33.4094 48.3974 33.2182V11.0245C48.3974 10.8333 48.3208 10.65 48.1844 10.5148C48.048 10.3796 47.863 10.3036 47.6701 10.3036ZM58.321 24.3373C59.7745 24.572 60.3749 25.184 60.3749 26.1345C60.3821 26.3533 60.3409 26.5711 60.2541 26.7724C60.1673 26.9738 60.037 27.1538 59.8724 27.2998C59.7078 27.4458 59.5129 27.5543 59.3014 27.6176C59.0899 27.6809 58.867 27.6974 58.6484 27.6661C57.897 27.6957 57.1584 27.4663 56.5583 27.0171C56.4313 26.9263 56.2787 26.8774 56.1222 26.8774C55.9656 26.8774 55.813 26.9263 55.686 27.0171L51.397 30.0972C51.3093 30.1557 51.236 30.233 51.1824 30.3234C51.1289 30.4138 51.0966 30.5149 51.0878 30.6194C51.0814 30.8324 51.16 31.0394 51.3064 31.1955C52.2617 32.1282 53.3994 32.8573 54.6496 33.3381C55.8997 33.8188 57.2359 34.041 58.5759 33.991C63.5196 33.991 67.3724 30.857 67.3724 26.2273C67.3724 21.5977 64.1733 19.3642 59.976 18.8231C58.0682 18.5885 57.5404 18.1382 57.5404 17.3824C57.542 17.2166 57.5785 17.0529 57.6477 16.9019C57.7169 16.751 57.8172 16.616 57.9421 16.5057C58.067 16.3954 58.2139 16.3123 58.3731 16.2615C58.5324 16.2108 58.7006 16.1937 58.867 16.2113C59.4838 16.2211 60.0792 16.4367 60.5572 16.8233C60.6789 16.9182 60.8294 16.9698 60.9843 16.9698C61.1392 16.9698 61.2896 16.9182 61.4113 16.8233L65.0466 14.2653C65.1272 14.2095 65.1949 14.1372 65.2451 14.0534C65.2953 13.9695 65.3269 13.876 65.3377 13.7791C65.3556 13.6841 65.3519 13.5862 65.3268 13.4928C65.3018 13.3993 65.2559 13.3126 65.1926 13.239C64.4358 12.2883 63.4642 11.5273 62.3562 11.0173C61.2481 10.5072 60.0346 10.2624 58.8136 10.3026C55.4151 10.3026 51.2893 13.198 51.2893 17.1657C51.2893 21.1334 54.2335 23.7553 58.3956 24.3713L58.321 24.3373ZM87.2358 33.9391H92.2157C92.4086 33.9391 92.5936 33.8631 92.73 33.728C92.8664 33.5928 92.943 33.4094 92.943 33.2182V11.0245C92.943 10.8333 92.8664 10.65 92.73 10.5148C92.5936 10.3796 92.4086 10.3036 92.2157 10.3036H87.2348C87.0419 10.3036 86.8569 10.3796 86.7205 10.5148C86.5841 10.65 86.5075 10.8333 86.5075 11.0245V12.3574C84.9537 11.0483 82.9856 10.3214 80.9464 10.3036C77.8788 10.4118 74.9783 11.7157 72.8753 13.9318C70.7723 16.148 69.6367 19.0973 69.7153 22.1388C69.6272 25.1794 70.7607 28.1303 72.8667 30.3429C74.9727 32.5554 77.8789 33.8486 80.9464 33.9381C81.9685 33.974 82.9875 33.8059 83.9428 33.4439C84.8981 33.0818 85.7703 32.5331 86.5075 31.8304V33.2172C86.5074 33.312 86.5261 33.4058 86.5626 33.4934C86.5991 33.581 86.6526 33.6606 86.7202 33.7276C86.7877 33.7947 86.8679 33.8478 86.9562 33.8841C87.0445 33.9204 87.1392 33.9391 87.2348 33.9391H87.2358Z" fill="white"/>
</g>
<defs>
<clipPath id="clip0_1360_2080">
<rect width="228" height="34" fill="white"/>
</clipPath>
</defs>
</svg>
