<svg width="124" height="32" viewBox="0 0 124 32" fill="none" xmlns="http://www.w3.org/2000/svg">
<path d="M11.1981 23.2176V20.0311H13.7162V7.17475H11.1981V4H19.0849C21.6599 4 23.6182 4.65436 24.9596 5.96309C26.301 7.27181 26.9717 9.21611 26.9717 11.796V15.4192C26.9717 18.0007 26.301 19.9458 24.9596 21.2545C23.6182 22.5632 21.6599 23.2176 19.0849 23.2176H11.1981ZM17.3328 19.9301H19.1388C20.6004 19.9301 21.6685 19.5458 22.3431 18.7772C23.0177 18.0085 23.3558 16.9284 23.3574 15.5367V11.6856C23.3574 10.2767 23.0193 9.19263 22.3431 8.43338C21.667 7.67414 20.5989 7.29451 19.1388 7.29451H17.3328V19.9301Z" fill="#BBBDCC"/>
<path d="M28.9978 23.2159V9.59644H32.3872V11.1322H32.8791C33.051 10.6191 33.4077 10.1887 33.8793 9.92519C34.3841 9.65854 34.9486 9.52596 35.519 9.54008H37.1586V12.6162H35.4604C34.679 12.5851 33.9122 12.8349 33.2984 13.3207C32.7315 13.7903 32.4481 14.5089 32.4481 15.4763V23.2253L28.9978 23.2159Z" fill="#BBBDCC"/>
<path d="M38.1728 23.6114C37.8317 23.619 37.4924 23.5585 37.1747 23.4335C36.8571 23.3086 36.5673 23.1216 36.3224 22.8835C35.8406 22.3773 35.5719 21.7045 35.5719 21.0049C35.5719 20.3053 35.8406 19.6326 36.3224 19.1264C36.8278 18.6583 37.4906 18.3984 38.1787 18.3984C38.8668 18.3984 39.5296 18.6583 40.035 19.1264C40.5084 19.6368 40.7715 20.308 40.7715 21.0049C40.7715 21.7019 40.5084 22.373 40.035 22.8835C39.7895 23.1242 39.498 23.3128 39.178 23.4379C38.858 23.563 38.5161 23.622 38.1728 23.6114Z" fill="#E5600E"/>
<path d="M48.0038 23.2176L53.0422 4H59.3409L64.3793 23.2176H60.655L59.6149 18.9908H52.7658L51.7258 23.2176H48.0038ZM53.6255 15.64H58.7787L56.4527 6.27774H55.9585L53.6255 15.64Z" fill="#BBBDCC"/>
<path d="M66.7898 23.2176V4H70.2401V23.2176H66.7898Z" fill="#BBBDCC"/>
<path d="M73.5264 28.7091V9.60192H76.9205V11.2457H77.4147C77.7777 10.6649 78.2761 10.1814 78.867 9.83674C79.5228 9.42659 80.4598 9.22073 81.6778 9.21916C82.7666 9.20625 83.8376 9.49695 84.7711 10.0588C85.7046 10.6207 86.4641 11.4315 86.9646 12.401C87.5314 13.4467 87.8148 14.71 87.8148 16.1909V16.63C87.8148 18.111 87.5314 19.3735 86.9646 20.4177C86.4535 21.4043 85.6759 22.227 84.7206 22.7917C83.7962 23.3301 82.7445 23.6098 81.6755 23.6018C80.9751 23.6191 80.2766 23.5223 79.6072 23.3153C79.1154 23.1589 78.6593 22.9068 78.265 22.5733C77.9561 22.3038 77.6843 21.9942 77.4569 21.6528H76.965V28.7091H73.5264ZM80.6402 20.5821C81.1309 20.5982 81.6198 20.5155 82.0781 20.3389C82.5364 20.1622 82.9546 19.8952 83.3081 19.5535C84.0108 18.8679 84.363 17.866 84.3645 16.5479V16.2731C84.3645 14.955 84.0085 13.9531 83.2964 13.2674C82.5696 12.604 81.622 12.2362 80.639 12.2362C79.656 12.2362 78.7084 12.604 77.9816 13.2674C77.2788 13.9531 76.9134 14.9558 76.9134 16.2731V16.5479C76.9134 17.8652 77.2718 18.8679 77.9816 19.5535C78.3345 19.8932 78.7513 20.1591 79.2077 20.3357C79.6642 20.5123 80.1511 20.596 80.6402 20.5821Z" fill="#BBBDCC"/>
<path d="M96.6385 23.6104C95.3884 23.6349 94.1533 23.3331 93.0547 22.7345C92.0344 22.1697 91.1983 21.3217 90.6467 20.2924C90.0507 19.1431 89.7565 17.8606 89.7918 16.5658V16.2371C89.76 14.9454 90.0524 13.6664 90.6421 12.5175C91.1837 11.489 92.0112 10.6399 93.0243 10.0731C94.116 9.47991 95.3431 9.18209 96.5847 9.20893C97.804 9.17968 99.0077 9.48846 100.063 10.1012C101.045 10.6935 101.842 11.5502 102.363 12.5739C102.929 13.7111 103.21 14.969 103.183 16.2394V17.4135H93.2889C93.2928 17.8451 93.3874 18.2711 93.5666 18.6636C93.7458 19.0561 94.0056 19.4063 94.329 19.6913C94.9924 20.2796 95.8538 20.5935 96.7393 20.5695C97.7067 20.5695 98.4188 20.3605 98.8755 19.9378C99.3125 19.5425 99.6661 19.0634 99.9155 18.5289L102.726 20.0106C102.414 20.5667 102.043 21.0871 101.618 21.5628C101.077 22.1631 100.42 22.6486 99.6883 22.9905C98.8982 23.4037 97.8816 23.6104 96.6385 23.6104ZM93.3264 14.8422H99.6789C99.6567 14.4797 99.5623 14.1253 99.4014 13.7999C99.2405 13.4744 99.0163 13.1845 98.742 12.9473C98.1256 12.4545 97.351 12.2041 96.5636 12.2428C95.6266 12.2428 94.8872 12.4776 94.3454 12.9473C93.7874 13.4339 93.4253 14.1075 93.3264 14.8422Z" fill="#BBBDCC"/>
<path d="M105.155 23.2159V9.59644H108.552V11.1322H109.044C109.216 10.6191 109.572 10.1887 110.044 9.92519C110.549 9.65854 111.113 9.52596 111.684 9.54008H113.323V12.6162H111.625C110.844 12.5851 110.077 12.8349 109.463 13.3207C108.896 13.7903 108.613 14.5089 108.613 15.4763V23.2253L105.155 23.2159Z" fill="#BBBDCC"/>
</svg>
