<svg width="315" height="611" viewBox="0 0 315 611" fill="none" xmlns="http://www.w3.org/2000/svg">
<g clip-path="url(#clip0_614_95)">
<path fill-rule="evenodd" clip-rule="evenodd" d="M64.8368 0H250.163C293.216 0 313.437 22.7543 313.437 60.2756V193.806C314.347 194.113 315 194.941 315 195.913V265.239C315 266.211 314.347 267.039 313.437 267.346V556.125C313.437 590.23 293.14 610.251 257.339 610.251H57.6614C21.8605 610.251 1.56328 590.913 1.56328 556.125V266.776C0.652517 266.469 0 265.642 0 264.669V223.458C0 222.485 0.652517 221.657 1.56328 221.351V207.692C0.652517 207.385 0 206.558 0 205.585V163.69C0 162.718 0.652517 161.89 1.56328 161.583V140.723C0.652517 140.417 0 139.589 0 138.616V120C0 119.027 0.652517 118.199 1.56328 117.893V60.2756C1.56328 22.7563 21.7844 0 64.8368 0Z" fill="#38363D"/>
</g>
<defs>
<clipPath id="clip0_614_95">
<rect width="315" height="610.251" fill="white"/>
</clipPath>
</defs>
</svg>
